<svg xmlns="http://www.w3.org/2000/svg" xmlns:xlink="http://www.w3.org/1999/xlink" width="1050" height="1200"><defs><linearGradient id="a"><stop offset="0" style="stop-color:#8300ff;stop-opacity:1"/><stop offset="1" style="stop-color:#00c2ff;stop-opacity:1"/></linearGradient><linearGradient xlink:href="#a" id="b" x1="550" x2="1600" y1="400" y2="1600" gradientUnits="userSpaceOnUse"/></defs><path d="M625 400a75 75 0 0 0-75 75 75 75 0 0 0 75 75h375a450 450 0 0 1 450 450 450 450 0 0 1-450 450h-75a75 75 0 0 0-75 75 75 75 0 0 0 75 75h75a600 600 0 0 0 600-600 600 600 0 0 0-600-600zm0 300a75 75 0 0 0-75 75 75 75 0 0 0 75 75h375a150 150 0 0 1 150 150 150 150 0 0 1-150 150H625a75 75 0 0 0-75 75v300a75 75 0 0 0 75 75 75 75 0 0 0 75-75v-225h300a300 300 0 0 0 300-300 300 300 0 0 0-300-300z" style="fill:url(#b);fill-opacity:1;stroke-width:99.9997;stroke-linecap:round;stroke-linejoin:round" transform="translate(-550 -400)"/></svg>