<?xml version="1.0" encoding="UTF-8" standalone="no"?>
<!-- Created with Inkscape (http://www.inkscape.org/) -->

<svg
   width="1050"
   height="1200"
   viewBox="0 0 1050 1200"
   version="1.1"
   id="svg5"
   xmlns:xlink="http://www.w3.org/1999/xlink"
   xmlns="http://www.w3.org/2000/svg"
   xmlns:svg="http://www.w3.org/2000/svg">
  <defs
     id="defs2">
    <linearGradient
       id="linearGradient21501">
      <stop
         style="stop-color:#8300ff;stop-opacity:1"
         offset="0"
         id="stop21497" />
      <stop
         style="stop-color:#00c2ff;stop-opacity:1"
         offset="1"
         id="stop21499" />
    </linearGradient>
    <linearGradient
       xlink:href="#linearGradient21501"
       id="linearGradient21495"
       x1="550"
       y1="400"
       x2="1600"
       y2="1600"
       gradientUnits="userSpaceOnUse" />
  </defs>
  <g
     id="layer1"
     transform="translate(-550,-400)">
    <path
       id="path237"
       style="fill:url(#linearGradient21495);fill-opacity:1;stroke-width:99.9997;stroke-linecap:round;stroke-linejoin:round"
       d="m 625,400 a 75,75 0 0 0 -75,75 75,75 0 0 0 75,75 h 375 a 450,450 0 0 1 450,450 450,450 0 0 1 -450,450 h -75 a 75,75 0 0 0 -75,75 75,75 0 0 0 75,75 h 75 a 600,600 0 0 0 600,-600 600,600 0 0 0 -600,-600 z m 0,300 a 75,75 0 0 0 -75,75 75,75 0 0 0 75,75 h 375 a 150,150 0 0 1 150,150 150,150 0 0 1 -150,150 H 625 a 75,75 0 0 0 -75,75 v 300 a 75,75 0 0 0 75,75 75,75 0 0 0 75,-75 v -225 h 300 a 300,300 0 0 0 300,-300 300,300 0 0 0 -300,-300 z" />
  </g>
</svg>
