<?xml version="1.0" encoding="UTF-8" standalone="no"?>
<!-- Created with Inkscape (http://www.inkscape.org/) -->

<svg
   width="3143.6951"
   height="1000"
   viewBox="0 0 3143.6951 1000"
   version="1.1"
   id="svg5"
   xmlns:xlink="http://www.w3.org/1999/xlink"
   xmlns="http://www.w3.org/2000/svg"
   xmlns:svg="http://www.w3.org/2000/svg">
  <defs
     id="defs2">
    <linearGradient
       xlink:href="#g"
       id="linearGradient129"
       gradientUnits="userSpaceOnUse"
       gradientTransform="translate(-56.276425,93.557617)"
       x1="715.16595"
       y1="478.43213"
       x2="1696.8789"
       y2="758.34204" />
    <linearGradient
       id="g">
      <stop
         style="stop-color:#ff0066;stop-opacity:1"
         offset="0"
         id="stop18387" />
      <stop
         style="stop-color:#ff7f2a;stop-opacity:1"
         offset="1"
         id="stop18389" />
    </linearGradient>
  </defs>
  <g
     id="g2980"
     style="fill:#ffffff">
    <g
       id="layer1"
       transform="matrix(0.58823529,0,0,0.58823529,-88.235294,-88.235294)"
       style="stroke-width:1.7;fill:#ffffff">
      <path
         id="path3890"
         style="fill:#ffffff;stroke-width:8.5;stroke-linecap:round;stroke-linejoin:round;paint-order:stroke fill markers"
         d="m 1000,150 a 850,850 0 0 0 -850,850 850,850 0 0 0 850,850 850,850 0 0 0 850,-850 850,850 0 0 0 -850,-850 z M 625,400 h 375 a 600,600 0 0 1 600,600 600,600 0 0 1 -600,600 h -75 a 75,75 0 0 1 -75,-75 75,75 0 0 1 75,-75 h 75 A 450,450 0 0 0 1450,1000 450,450 0 0 0 1000,550 H 625 a 75,75 0 0 1 -75,-75 75,75 0 0 1 75,-75 z m 0,300 h 375 a 300,300 0 0 1 300,300 300,300 0 0 1 -300,300 H 700 v 225 a 75,75 0 0 1 -75,75 75,75 0 0 1 -75,-75 v -300 a 75,75 0 0 1 75,-75 h 375 A 150,150 0 0 0 1150,1000 150,150 0 0 0 1000,850 H 625 a 75,75 0 0 1 -75,-75 75,75 0 0 1 75,-75 z" />
    </g>
    <g
       aria-label="DIGITALTALPLAYGROUND"
       id="text133377"
       style="font-size:300px;line-height:1.1;font-family:'Noto Sans JP';-inkscape-font-specification:'Noto Sans JP';font-variant-ligatures:none;letter-spacing:5px">
      <path
         d="m 1148.9529,428 q -12.9,0 -21,-7.8 -8.1,-7.8 -8.1,-20.4 V 218 h 100.2 q 24,0 42,9 18.3,9 28.2,25.5 10.2,16.5 10.2,38.1 v 58.8 q 0,38.7 -20.1,58.8 -20.1,19.8 -59.1,19.8 z m 71.1,-36.6 q 19.2,0 29.1,-11.1 9.9,-11.1 9.9,-32.7 v -55.2 q 0,-17.1 -11.1,-27.3 -11.1,-10.5 -29.1,-10.5 h -57.6 v 136.8 z"
         style="font-weight:bold;font-family:'Bai Jamjuree';-inkscape-font-specification:'Bai Jamjuree Bold'"
         id="path1114" />
      <path
         d="m 1338.2045,218 h 41.4 v 210 h -41.4 z"
         style="font-weight:bold;font-family:'Bai Jamjuree';-inkscape-font-specification:'Bai Jamjuree Bold'"
         id="path1116" />
      <path
         d="m 1496.5795,430.4 q -23.1,0 -40.8,-9.9 -17.7,-9.9 -27.6,-27.9 -9.6,-18.3 -9.6,-42 v -55.2 q 0,-23.7 9.6,-41.7 9.9,-18.3 27.6,-28.2 18,-9.9 41.4,-9.9 h 33.6 q 22.5,0 39.6,9 17.1,9 26.4,25.5 9.6,16.5 9.6,38.1 h -40.8 q 0,-16.2 -9.6,-26.1 -9.6,-9.9 -25.2,-9.9 h -33.6 q -16.8,0 -27,12.6 -10.2,12.3 -10.2,32.4 v 51.6 q 0,20.1 9.9,32.7 10.2,12.3 26.7,12.3 h 35.4 q 15.3,0 25.2,-11.1 10.2,-11.1 10.2,-27.6 v -6.6 h -58.2 v -36 h 99 v 42.6 q 0,21.9 -9.6,39 -9.6,17.1 -27,26.7 -17.4,9.6 -39.6,9.6 z"
         style="font-weight:bold;font-family:'Bai Jamjuree';-inkscape-font-specification:'Bai Jamjuree Bold'"
         id="path1118" />
      <path
         d="m 1646.4467,218 h 41.4 v 210 h -41.4 z"
         style="font-weight:bold;font-family:'Bai Jamjuree';-inkscape-font-specification:'Bai Jamjuree Bold'"
         id="path1120" />
      <path
         d="m 1784.4217,254 h -66.6 v -36 h 174.6 v 36 h -66.6 v 174 h -41.4 z"
         style="font-weight:bold;font-family:'Bai Jamjuree';-inkscape-font-specification:'Bai Jamjuree Bold'"
         id="path1122" />
      <path
         d="m 2012.5795,379.1 h -78.6 l -18.6,48.9 h -43.2 l 82.2,-210 h 18.6 q 19.5,0 26.4,18 l 74.7,192 h -43.2 z m -67.5,-34.8 h 56.4 l -27.9,-75.6 h -0.3 z"
         style="font-weight:bold;font-family:'Bai Jamjuree';-inkscape-font-specification:'Bai Jamjuree Bold'"
         id="path1124" />
      <path
         d="m 2126.4139,428 q -13.2,0 -21.3,-7.5 -7.8,-7.8 -7.8,-20.4 V 218 h 41.4 v 174 h 114 v 36 z"
         style="font-weight:bold;font-family:'Bai Jamjuree';-inkscape-font-specification:'Bai Jamjuree Bold'"
         id="path1126" />
      <path
         d="m 2301.5701,254 h -66.6 v -36 h 174.6 v 36 h -66.6 v 174 h -41.4 z"
         style="font-weight:bold;font-family:'Bai Jamjuree';-inkscape-font-specification:'Bai Jamjuree Bold'"
         id="path1128" />
      <path
         d="m 2529.7279,379.1 h -78.6 l -18.6,48.9 h -43.2 l 82.2,-210 h 18.6 q 19.5,0 26.4,18 l 74.7,192 h -43.2 z m -67.5,-34.8 h 56.4 l -27.9,-75.6 h -0.3 z"
         style="font-weight:bold;font-family:'Bai Jamjuree';-inkscape-font-specification:'Bai Jamjuree Bold'"
         id="path1130" />
      <path
         d="m 2643.5623,428 q -13.2,0 -21.3,-7.5 -7.8,-7.8 -7.8,-20.4 V 218 h 41.4 v 174 h 114 v 36 z"
         style="font-weight:bold;font-family:'Bai Jamjuree';-inkscape-font-specification:'Bai Jamjuree Bold'"
         id="path1132" />
      <path
         d="m 1119.8529,572 h 110.7 q 18.3,0 32.4,7.2 14.1,6.9 21.9,20.1 7.8,12.9 7.8,29.7 v 27.9 q 0,17.4 -8.1,30.9 -8.1,13.2 -22.8,20.7 -14.4,7.2 -33.6,7.2 h -66.9 V 782 h -41.4 z m 107.7,107.7 q 10.5,0 17.1,-6.6 6.6,-6.9 6.6,-18 v -24.3 q 0,-10.5 -6,-16.5 -5.7,-6.3 -15.3,-6.3 h -68.7 v 71.7 z"
         style="font-weight:bold;font-family:'Bai Jamjuree';-inkscape-font-specification:'Bai Jamjuree Bold'"
         id="path1134" />
      <path
         d="m 1349.6561,782 q -13.2,0 -21.3,-7.5 -7.8,-7.8 -7.8,-20.4 V 572 h 41.4 v 174 h 114 v 36 z"
         style="font-weight:bold;font-family:'Bai Jamjuree';-inkscape-font-specification:'Bai Jamjuree Bold'"
         id="path1136" />
      <path
         d="m 1624.9232,733.1 h -78.6 l -18.6,48.9 h -43.2 l 82.2,-210 h 18.6 q 19.5,0 26.4,18 l 74.7,192 h -43.2 z m -67.5,-34.8 h 56.4 l -27.9,-75.6 h -0.3 z"
         style="font-weight:bold;font-family:'Bai Jamjuree';-inkscape-font-specification:'Bai Jamjuree Bold'"
         id="path1138" />
      <path
         d="m 1739.4467,700.4 -77.7,-128.4 h 45 l 53.4,90.3 53.4,-90.3 h 45 l -77.7,128.4 V 782 h -41.4 z"
         style="font-weight:bold;font-family:'Bai Jamjuree';-inkscape-font-specification:'Bai Jamjuree Bold'"
         id="path1140" />
      <path
         d="m 1944.8607,784.4 q -23.1,0 -40.8,-9.9 -17.7,-9.9 -27.6,-27.9 -9.6,-18.3 -9.6,-42 v -55.2 q 0,-23.7 9.6,-41.7 9.9,-18.3 27.6,-28.2 18,-9.9 41.4,-9.9 h 33.6 q 22.5,0 39.6,9 17.1,9 26.4,25.5 9.6,16.5 9.6,38.1 h -40.8 q 0,-16.2 -9.6,-26.1 -9.6,-9.9 -25.2,-9.9 h -33.6 q -16.8,0 -27,12.6 -10.2,12.3 -10.2,32.4 v 51.6 q 0,20.1 9.9,32.7 10.2,12.3 26.7,12.3 h 35.4 q 15.3,0 25.2,-11.1 10.2,-11.1 10.2,-27.6 v -6.6 h -58.2 v -36 h 99 v 42.6 q 0,21.9 -9.6,39 -9.6,17.1 -27,26.7 -17.4,9.6 -39.6,9.6 z"
         style="font-weight:bold;font-family:'Bai Jamjuree';-inkscape-font-specification:'Bai Jamjuree Bold'"
         id="path1142" />
      <path
         d="m 2091.7279,572 h 111.6 q 27.3,0 43.8,14.7 16.8,14.7 16.8,38.7 v 21 q 0,15.6 -9,27.3 -8.7,11.4 -25.5,17.4 v 0.6 q 9.6,6.3 14.4,14.4 5.1,8.1 9.9,22.5 l 16.8,53.4 h -42.9 l -15.9,-49.8 q -3.9,-12.9 -10.8,-19.2 -6.9,-6.3 -17.1,-6.3 h -50.7 V 782 h -41.4 z m 103.8,99 q 12.6,0 19.8,-6.6 7.2,-6.9 7.2,-17.7 v -19.5 q 0,-8.7 -5.4,-13.8 -5.4,-5.4 -14.4,-5.4 h -69.6 v 63 z"
         style="font-weight:bold;font-family:'Bai Jamjuree';-inkscape-font-specification:'Bai Jamjuree Bold'"
         id="path1144" />
      <path
         d="m 2372.9764,784.4 q -23.7,0 -42,-9.9 -18,-10.2 -28.2,-28.2 -9.9,-18.3 -9.9,-42.3 v -54 q 0,-24 9.9,-42 10.2,-18.3 28.2,-28.2 18.3,-10.2 42,-10.2 h 31.8 q 23.7,0 41.7,10.2 18.3,9.9 28.2,28.2 10.2,18 10.2,42 v 54 q 0,24 -10.2,42.3 -9.9,18 -28.2,28.2 -18,9.9 -41.7,9.9 z m 31.8,-36.6 q 17.4,0 27.9,-12.6 10.8,-12.6 10.8,-33 v -50.4 q 0,-20.4 -10.8,-33 -10.5,-12.6 -27.9,-12.6 h -31.8 q -17.4,0 -28.2,12.6 -10.5,12.6 -10.5,33 v 50.4 q 0,20.4 10.5,33 10.8,12.6 28.2,12.6 z"
         style="font-weight:bold;font-family:'Bai Jamjuree';-inkscape-font-specification:'Bai Jamjuree Bold'"
         id="path1146" />
      <path
         d="m 2594.4592,784.4 q -22.2,0 -39,-9.3 -16.8,-9.6 -26.1,-26.7 -9.3,-17.1 -9.3,-39.6 V 572 h 41.4 v 135.6 q 0,18 9,29.1 9.3,11.1 24,11.1 h 31.8 q 15,0 24.3,-11.1 9.3,-11.1 9.3,-29.1 V 572 h 41.4 v 136.8 q 0,22.5 -9.3,39.6 -9.3,17.1 -26.4,26.7 -17.1,9.3 -39.3,9.3 z"
         style="font-weight:bold;font-family:'Bai Jamjuree';-inkscape-font-specification:'Bai Jamjuree Bold'"
         id="path1148" />
      <path
         d="m 2742.4701,572 h 36.9 l 100.8,142.8 V 572 h 40.5 v 210 h -36.9 l -100.8,-142.8 V 782 h -40.5 z"
         style="font-weight:bold;font-family:'Bai Jamjuree';-inkscape-font-specification:'Bai Jamjuree Bold'"
         id="path1150" />
      <path
         d="m 2992.1951,782 q -12.9,0 -21,-7.8 -8.1,-7.8 -8.1,-20.4 V 572 h 100.2 q 24,0 42,9 18.3,9 28.2,25.5 10.2,16.5 10.2,38.1 v 58.8 q 0,38.7 -20.1,58.8 -20.1,19.8 -59.1,19.8 z m 71.1,-36.6 q 19.2,0 29.1,-11.1 9.9,-11.1 9.9,-32.7 v -55.2 q 0,-17.1 -11.1,-27.3 -11.1,-10.5 -29.1,-10.5 h -57.6 v 136.8 z"
         style="font-weight:bold;font-family:'Bai Jamjuree';-inkscape-font-specification:'Bai Jamjuree Bold'"
         id="path1152" />
    </g>
  </g>
</svg>
