<?xml version="1.0" encoding="UTF-8" standalone="no"?>
<!-- Created with Inkscape (http://www.inkscape.org/) -->

<svg
   width="2821.1523"
   height="800"
   viewBox="0 0 2821.1524 800"
   version="1.1"
   id="svg5"
   xmlns:xlink="http://www.w3.org/1999/xlink"
   xmlns="http://www.w3.org/2000/svg"
   xmlns:svg="http://www.w3.org/2000/svg">
  <defs
     id="defs2">
    <linearGradient
       id="linearGradient4919">
      <stop
         style="stop-color:#ff1200;stop-opacity:1"
         offset="0"
         id="stop4915" />
      <stop
         style="stop-color:#ffda00;stop-opacity:1"
         offset="1"
         id="stop4917" />
    </linearGradient>
    <linearGradient
       id="linearGradient4792">
      <stop
         style="stop-color:#ff1200;stop-opacity:1"
         offset="0"
         id="stop4788" />
      <stop
         style="stop-color:#ffda00;stop-opacity:1"
         offset="1"
         id="stop4790" />
    </linearGradient>
    <linearGradient
       id="linearGradient4424">
      <stop
         style="stop-color:#ff0059;stop-opacity:1"
         offset="0"
         id="stop4420" />
      <stop
         style="stop-color:#4b00ff;stop-opacity:1"
         offset="1"
         id="stop4422" />
    </linearGradient>
    <linearGradient
       xlink:href="#linearGradient4424"
       id="linearGradient4418"
       x1="200"
       y1="730.29437"
       x2="900"
       y2="235.7645"
       gradientUnits="userSpaceOnUse"
       gradientTransform="translate(-200,-100)" />
    <linearGradient
       xlink:href="#linearGradient4792"
       id="linearGradient4784"
       x1="200"
       y1="350.72498"
       x2="900"
       y2="625.64258"
       gradientUnits="userSpaceOnUse"
       gradientTransform="translate(-200,-100)" />
    <linearGradient
       xlink:href="#linearGradient4919"
       id="linearGradient4786"
       x1="200"
       y1="350.72498"
       x2="900"
       y2="625.64258"
       gradientUnits="userSpaceOnUse"
       gradientTransform="translate(-200,-100)" />
  </defs>
  <path
     id="path3909"
     style="fill:#ffffff;fill-opacity:1;stroke-width:8;stroke-linejoin:round"
     d="M 50,0 C 22.3,0 0,22.3 0,50 c 0,27.7 22.3,50 50,50 h 50 50 150 A 300,300 0 0 1 600,400 300,300 0 0 1 300,700 h -49.56445 -79 H 100 V 650 300 h 71 79 50 a 100,100 0 0 1 8.67383,0.40039 100,100 0 0 0 -8.45508,-0.40039 150,150 0 0 1 7.39063,0.29102 100,100 0 0 1 1.06445,0.10937 100,100 0 0 1 1.41601,0.14649 100,100 0 0 1 7.94532,1.10937 100,100 0 0 1 0.52148,0.0898 100,100 0 0 1 66.66016,45.6211 100,100 0 0 1 11.16992,25.26758 A 100,100 0 0 0 385.2168,347.36719 100,100 0 0 0 318.55664,301.74609 100,100 0 0 1 400,400 100,100 0 0 1 396.76758,424.54883 100,100 0 0 0 400.21875,400 100,100 0 0 0 396.38867,372.63867 100,100 0 0 1 400.21875,400 a 100,100 0 0 1 -3.45117,24.54883 100,100 0 0 1 0,0.006 100,100 0 0 1 -1.02735,3.38672 100,100 0 0 1 -8.21289,19.83007 100,100 0 0 1 -0.002,0.004 100,100 0 0 1 -40.5957,40.09961 100,100 0 0 1 -17.61524,7.29492 100,100 0 0 1 -5.64843,1.71289 A 100,100 0 0 1 300.21875,500 100,100 0 0 0 323.66602,496.88281 100,100 0 0 1 300,500 h -99.78125 c -27.7,0 -50,22.3 -50,50 0,27.70001 22.3,50 50,50 h 100 a 150,150 0 0 0 21.34766,-1.52734 150,150 0 0 0 4.68945,-1.0586 200,200 0 0 0 8.85156,-0.87304 200,200 0 0 0 73.25781,-28.7793 200,200 0 0 0 5.15625,-3.44531 200,200 0 0 0 51.18555,-51.27149 200,200 0 0 0 2.76367,-4.13672 A 200,200 0 0 0 500,400 200,200 0 0 0 300,200 H 250 171 50 C 22.3,200 0,222.3 0,250 v 100 300 50 50 c 0,27.7 22.3,50 50,50 0.0976,0 0.191603,-0.0131 0.289062,-0.0137 0.0501,1.4e-4 0.09629,0.0137 0.146485,0.0137 h 121.000003 79 H 300 h 0.43555 a 400,400 0 0 0 49.81054,-3.5625 350,350 0 0 0 0.006,-0.002 350,350 0 0 0 0.20899,-0.0449 400,400 0 0 0 4.89453,-0.3496 400,400 0 0 0 12.34765,-2.45704 400,400 0 0 0 41.80079,-9.09375 400,400 0 0 0 14.80859,-5.02734 400,400 0 0 0 37.33789,-13.92578 400,400 0 0 0 14.77149,-7.2832 400,400 0 0 0 34.4082,-18.78907 400,400 0 0 0 13.6582,-9.125 400,400 0 0 0 31.61719,-23.66796 400,400 0 0 0 11.92773,-10.46094 400,400 0 0 0 28.61328,-28.61328 400,400 0 0 0 9.7129,-11.07618 400,400 0 0 0 25.32421,-33.83007 400,400 0 0 0 7.13477,-10.67774 400,400 0 0 0 21.71289,-39.76367 400,400 0 0 0 4.32227,-8.76367 400,400 0 0 0 17.81445,-47.76758 400,400 0 0 0 1.31055,-3.85547 A 400,400 0 0 0 700,400 400,400 0 0 0 375.88867,7.2695312 400,400 0 0 0 375.58789,7.2089844 400,400 0 0 0 357.54102,4.1757812 400,400 0 0 0 356.66602,4.0410156 400,400 0 0 0 338.93555,1.9199219 400,400 0 0 0 337.7793,1.7929688 400,400 0 0 0 319.60156,0.49414062 400,400 0 0 0 318.94922,0.45117188 400,400 0 0 0 300,0 H 150 100 Z m 341.15234,10.494141 a 400,400 0 0 1 7.74414,1.896484 400,400 0 0 0 -7.74414,-1.896484 z m 17.82422,4.595703 a 400,400 0 0 1 7.63282,2.226562 400,400 0 0 0 -7.63282,-2.226562 z m 17.58399,5.40625 a 400,400 0 0 1 7.47656,2.539062 400,400 0 0 0 -7.47656,-2.539062 z m 17.47265,6.267578 a 400,400 0 0 1 7.10352,2.761719 400,400 0 0 0 -7.10352,-2.761719 z m 17.33399,7.140625 a 400,400 0 0 1 6.59375,2.902344 400,400 0 0 0 -6.59375,-2.902344 z m 17.67773,8.287109 a 400,400 0 0 1 5.32617,2.626953 400,400 0 0 0 -5.32617,-2.626953 z m 37.01172,20.919922 a 400,400 0 0 1 5.0332,3.363281 400,400 0 0 0 -5.0332,-3.363281 z m 15.13281,10.199219 a 400,400 0 0 1 5.90625,4.330078 400,400 0 0 0 -5.90625,-4.330078 z m 14.70508,10.916015 a 400,400 0 0 1 6.01563,4.828126 400,400 0 0 0 -6.01563,-4.828126 z M 560.09375,95.8125 a 400,400 0 0 1 5.94922,5.21875 400,400 0 0 0 -5.94922,-5.21875 z m 13.64258,12.21094 a 400,400 0 0 1 5.82812,5.58008 400,400 0 0 0 -5.82812,-5.58008 z m 13.0957,12.84765 a 400,400 0 0 1 5.58008,5.82813 400,400 0 0 0 -5.58008,-5.82813 z m 12.57227,13.52149 a 400,400 0 0 1 5.21875,5.94922 400,400 0 0 0 -5.21875,-5.94922 z m 11.97656,14.13281 a 400,400 0 0 1 4.82812,6.01563 400,400 0 0 0 -4.82812,-6.01563 z m 11.41406,14.81445 a 400,400 0 0 1 4.33008,5.90625 400,400 0 0 0 -4.33008,-5.90625 z m 11.16602,16.00586 a 400,400 0 0 1 3.36328,5.03321 400,400 0 0 0 -3.36328,-5.03321 z m -324.58203,20.87305 a 200,200 0 0 1 2.89843,0.18945 200,200 0 0 0 -2.89843,-0.18945 z m 9.10156,0.63477 a 200,200 0 0 1 3.58594,0.39062 200,200 0 0 0 -3.58594,-0.39062 z m 9.07812,1.04687 a 200,200 0 0 1 3.82618,0.58984 200,200 0 0 0 -3.82618,-0.58984 z m 9.06836,1.47266 a 200,200 0 0 1 3.81836,0.75976 200,200 0 0 0 -3.81836,-0.75976 z m 8.94336,1.87304 a 200,200 0 0 1 3.90821,0.95508 200,200 0 0 0 -3.90821,-0.95508 z m 8.92383,2.30079 a 200,200 0 0 1 3.7832,1.10156 200,200 0 0 0 -3.7832,-1.10156 z m 8.83008,2.71484 a 200,200 0 0 1 3.66797,1.24609 200,200 0 0 0 -3.66797,-1.24609 z m 8.70312,3.12305 a 200,200 0 0 1 3.55469,1.38281 200,200 0 0 0 -3.55469,-1.38281 z m 283.58985,2.67968 a 400,400 0 0 1 2.62695,5.32617 400,400 0 0 0 -2.62695,-5.32617 z m -274.89063,0.90625 a 200,200 0 0 1 3.22852,1.42188 200,200 0 0 0 -3.22852,-1.42188 z m 8.80078,4.12696 a 200,200 0 0 1 2.66797,1.3164 200,200 0 0 0 -2.66797,-1.3164 z m 18.48047,10.44531 a 200,200 0 0 1 2.65821,1.77539 200,200 0 0 0 -2.65821,-1.77539 z m 255.6211,0.93164 a 400,400 0 0 1 2.90234,6.59375 400,400 0 0 0 -2.90234,-6.59375 z m -248.05079,4.16797 a 200,200 0 0 1 3.03321,2.22461 200,200 0 0 0 -3.03321,-2.22461 z m 7.36133,5.46484 a 200,200 0 0 1 3.03907,2.43946 200,200 0 0 0 -3.03907,-2.43946 z m 7.08203,5.77539 a 200,200 0 0 1 3.04102,2.66797 200,200 0 0 0 -3.04102,-2.66797 z m 240.88868,1.41602 a 400,400 0 0 1 2.76172,7.10351 400,400 0 0 0 -2.76172,-7.10351 z m -234.03321,4.7207 a 200,200 0 0 1 2.85938,2.73633 200,200 0 0 0 -2.85938,-2.73633 z m 6.58594,6.46289 a 200,200 0 0 1 2.73633,2.85938 200,200 0 0 0 -2.73633,-2.85938 z m 233.9375,5.91602 a 400,400 0 0 1 2.53906,7.47656 400,400 0 0 0 -2.53906,-7.47656 z m -227.73242,0.75781 a 200,200 0 0 1 2.66797,3.04102 200,200 0 0 0 -2.66797,-3.04102 z m 6.00391,7.08398 a 200,200 0 0 1 2.43945,3.03907 200,200 0 0 0 -2.43945,-3.03907 z m 5.67968,7.36719 a 200,200 0 0 1 2.22461,3.0332 200,200 0 0 0 -2.22461,-3.0332 z m 221.76758,2.21875 a 400,400 0 0 1 2.22656,7.63281 400,400 0 0 0 -2.22656,-7.63281 z m -216.21875,5.72656 a 200,200 0 0 1 1.77539,2.65821 200,200 0 0 0 -1.77539,-2.65821 z m -156.17187,10.86133 a 150,150 0 0 1 2.92382,0.2461 150,150 0 0 0 -2.92382,-0.2461 z m 377.3164,1.125 a 400,400 0 0 1 1.89649,7.74414 400,400 0 0 0 -1.89649,-7.74414 z m -365.99414,0.11524 a 150,150 0 0 1 2.27734,0.32226 150,150 0 0 0 -2.27734,-0.32226 z m 12.50977,2.35547 a 150,150 0 0 1 2.33398,0.60156 150,150 0 0 0 -2.33398,-0.60156 z m 10.36718,2.86914 a 150,150 0 0 1 2.84571,0.90625 150,150 0 0 0 -2.84571,-0.90625 z m 132.87696,1.14453 a 200,200 0 0 1 1.3164,2.66797 200,200 0 0 0 -1.3164,-2.66797 z m -110.63281,7.79883 a 150,150 0 0 1 2.60351,1.34375 150,150 0 0 0 -2.60351,-1.34375 z m 114.65429,0.4414 a 200,200 0 0 1 1.42188,3.22852 200,200 0 0 0 -1.42188,-3.22852 z m 210.32813,3.19531 a 400,400 0 0 1 1.54101,7.74805 400,400 0 0 0 -1.54101,-7.74805 z m -315.05664,1.80664 a 150,150 0 0 1 2.07422,1.22461 150,150 0 0 0 -2.07422,-1.22461 z m 108.35351,3.3711 a 200,200 0 0 1 1.38281,3.55469 200,200 0 0 0 -1.38281,-3.55469 z m -97.63672,3.62695 a 150,150 0 0 1 1.91602,1.44141 150,150 0 0 0 -1.91602,-1.44141 z m 100.89649,4.96289 a 200,200 0 0 1 1.24609,3.66797 200,200 0 0 0 -1.24609,-3.66797 z m -92.40625,1.66211 a 150,150 0 0 1 2.27343,1.92188 150,150 0 0 0 -2.27343,-1.92188 z m 299.16992,2.89844 a 400,400 0 0 1 1.15039,7.48242 400,400 0 0 0 -1.15039,-7.48242 z m -203.9043,4.1543 a 200,200 0 0 1 1.10157,3.7832 200,200 0 0 0 -1.10157,-3.7832 z m 2.44727,8.79882 a 200,200 0 0 1 0.95508,3.90821 200,200 0 0 0 -0.95508,-3.90821 z m -80.60938,0.90039 a 150,150 0 0 1 1.92188,2.27344 150,150 0 0 0 -1.92188,-2.27344 z m 284.54102,4.68946 a 400,400 0 0 1 0.7832,7.14844 400,400 0 0 0 -0.7832,-7.14844 z m -201.86328,3.44336 a 200,200 0 0 1 0.75976,3.81836 200,200 0 0 0 -0.75976,-3.81836 z m -75.57227,0.71484 a 150,150 0 0 1 1.44141,1.91602 150,150 0 0 0 -1.44141,-1.91602 z m 77.21485,8.3457 a 200,200 0 0 1 0.58984,3.82618 200,200 0 0 0 -0.58984,-3.82618 z m -70,2.2129 a 150,150 0 0 1 1.2246,2.07421 150,150 0 0 0 -1.2246,-2.07421 z m 271.87695,4.64062 A 400,400 0 0 1 700,381.72461 400,400 0 0 0 699.60547,375.6875 Z m -200.63086,2.46484 a 200,200 0 0 1 0.39062,3.58594 200,200 0 0 0 -0.39062,-3.58594 z m -65.92188,2.29102 a 150,150 0 0 1 1.34375,2.60352 150,150 0 0 0 -1.34375,-2.60352 z m 66.75782,7.49805 a 200,200 0 0 1 0.18945,2.89843 200,200 0 0 0 -0.18945,-2.89843 z m -57.37696,14.5039 a 150,150 0 0 1 0.90625,2.84571 150,150 0 0 0 -0.90625,-2.84571 z m 3.17383,10.87891 a 150,150 0 0 1 0.60156,2.33398 150,150 0 0 0 -0.60156,-2.33398 z m 2.63477,12.5664 a 150,150 0 0 1 0.32226,2.27735 150,150 0 0 0 -0.32226,-2.27735 z m 50.02343,1.4375 a 200,200 0 0 1 -1.76953,8.88672 200,200 0 0 0 1.76953,-8.88672 z m -48.70703,9.23829 a 150,150 0 0 1 0.2461,2.92382 150,150 0 0 0 -0.2461,-2.92382 z m 43.03711,17.57812 a 200,200 0 0 1 -3.46484,10.20899 200,200 0 0 0 3.46484,-10.20899 z m 203.92969,0.52539 a 400,400 0 0 1 -3.51953,17.68946 400,400 0 0 0 3.51953,-17.68946 z m -213.20703,25.26563 a 200,200 0 0 1 -5.07617,10.29297 200,200 0 0 0 5.07617,-10.29297 z m -36.80859,1.28711 a 150,150 0 0 1 -1.61329,6.64257 150,150 0 0 0 1.61329,-6.64257 z m 8.16015,45.33984 a 200,200 0 0 1 -7.89648,9.00586 200,200 0 0 0 7.89648,-9.00586 z m -38.57422,18.04492 a 150,150 0 0 1 -2.90234,3.34766 150,150 0 0 0 2.90234,-3.34766 z m 19.69141,1.94727 a 200,200 0 0 1 -9.00586,7.89648 200,200 0 0 0 9.00586,-7.89648 z m -45.33984,31.46875 a 200,200 0 0 1 -10.29297,5.07617 200,200 0 0 0 10.29297,-5.07617 z m -30.04493,8.94726 a 150,150 0 0 1 -2.26367,0.90625 150,150 0 0 0 2.26367,-0.90625 z m 4.16993,1.94141 a 200,200 0 0 1 -10.20899,3.46484 200,200 0 0 0 10.20899,-3.46484 z" />
  <g
     aria-label="DIGITALTALPLAYGROUND"
     id="text2965"
     style="font-weight:500;font-size:300px;line-height:1.25;font-family:Roboto;-inkscape-font-specification:'Roboto Medium';letter-spacing:10px;fill:#ffffff;stroke-width:1.00986">
    <path
       d="M 850.31421,319.14062 V 105.85938 h 62.98828 q 28.27148,0 50.09766,12.59765 21.97265,12.59766 33.98437,35.74219 12.01168,23.14453 12.01168,53.02734 v 10.69336 q 0,30.32227 -12.15816,53.32031 -12.01172,22.99805 -34.42383,35.44922 -22.26563,12.45117 -51.12305,12.45117 z m 37.06055,-183.39843 v 153.80859 h 24.16992 q 29.15039,0 44.67773,-18.16406 15.67383,-18.31055 15.9668,-52.44141 v -11.86523 q 0,-34.7168 -15.08789,-53.02735 -15.08789,-18.31054 -43.79883,-18.31054 z"
       id="path2817" />
    <path
       d="m 1095.7146,319.14062 h -36.9141 V 105.85938 h 36.9141 z"
       id="path2819" />
    <path
       d="m 1315.0408,291.45508 q -11.5723,15.08789 -32.0801,22.85156 -20.5078,7.76367 -46.582,7.76367 -26.8067,0 -47.461,-12.1582 -20.6543,-12.1582 -31.9336,-34.7168 -11.1328,-22.70508 -11.5722,-52.88086 v -16.69922 q 0,-48.33984 23.1445,-75.43945 23.1445,-27.24609 64.5996,-27.24609 35.5957,0 56.543,17.57812 20.9472,17.57813 25.1953,50.6836 h -36.3281 q -6.1524,-38.52539 -44.6778,-38.52539 -24.9023,0 -37.9394,18.01757 -12.8907,17.8711 -13.3301,52.58789 v 16.40625 q 0,34.57032 14.5019,53.75977 14.6485,19.04297 40.5762,19.04297 28.418,0 40.4297,-12.89063 V 237.8418 h -43.9453 v -28.125 h 80.8594 z"
       id="path2821" />
    <path
       d="m 1405.1677,319.14062 h -36.914 V 105.85938 h 36.914 z"
       id="path2823" />
    <path
       d="m 1611.0173,135.74219 h -66.5039 v 183.39843 h -36.7676 V 135.74219 h -65.9179 v -29.88281 h 169.1894 z"
       id="path2825" />
    <path
       d="m 1750.949,269.48242 h -82.6172 l -17.2852,49.6582 h -38.5254 l 80.5664,-213.28124 h 33.252 l 80.7129,213.28124 h -38.6719 z m -72.2168,-29.88281 h 61.8164 l -30.9082,-88.47656 z"
       id="path2827" />
    <path
       d="m 1878.4294,289.55078 h 96.8262 v 29.58984 H 1841.3689 V 105.85938 h 37.0605 z"
       id="path2829" />
    <path
       d="m 2137.8923,135.74219 h -66.5039 v 183.39843 h -36.7676 V 135.74219 h -65.9179 v -29.88281 h 169.1894 z"
       id="path2831" />
    <path
       d="m 2277.824,269.48242 h -82.6172 l -17.2852,49.6582 h -38.5254 l 80.5664,-213.28124 h 33.252 l 80.7129,213.28124 h -38.6719 z m -72.2168,-29.88281 h 61.8164 l -30.9082,-88.47656 z"
       id="path2833" />
    <path
       d="m 2405.3044,289.55078 h 96.8262 v 29.58984 H 2368.2439 V 105.85938 h 37.0605 z"
       id="path2835" />
    <path
       d="m 887.37476,614.89258 v 79.24804 H 850.31421 V 480.85937 h 81.5918 q 35.74218,0 56.68945,18.60352 21.09374,18.60352 21.09374,49.21875 0,31.34766 -20.65429,48.7793 -20.50781,17.43164 -57.56836,17.43164 z m 0,-29.73633 h 44.53125 q 19.77539,0 30.17578,-9.22852 10.40039,-9.375 10.40039,-26.95312 0,-17.28516 -10.54688,-27.53906 -10.54687,-10.40039 -29.0039,-10.69336 h -45.55664 z"
       id="path2837" />
    <path
       d="m 1088.9763,664.55078 h 96.8262 v 29.58984 H 1051.9158 V 480.85937 h 37.0605 z"
       id="path2839" />
    <path
       d="m 1346.5349,644.48242 h -82.6172 l -17.2851,49.6582 h -38.5254 l 80.5664,-213.28125 h 33.2519 l 80.7129,213.28125 h -38.6718 z m -72.2168,-29.88281 h 61.8164 l -30.9082,-88.47656 z"
       id="path2841" />
    <path
       d="m 1484.8552,581.93359 49.0723,-101.07422 h 41.0156 L 1503.4587,615.625 v 78.51562 h -37.207 V 615.625 l -71.6309,-134.76563 h 41.1622 z"
       id="path2843" />
    <path
       d="m 1767.4626,666.45508 q -11.5722,15.08789 -32.08,22.85156 -20.5078,7.76367 -46.5821,7.76367 -26.8066,0 -47.4609,-12.1582 -20.6543,-12.1582 -31.9336,-34.7168 -11.1328,-22.70508 -11.5723,-52.88086 v -16.69922 q 0,-48.33984 23.1446,-75.43945 23.1445,-27.24609 64.5996,-27.24609 35.5957,0 56.5429,17.57812 20.9473,17.57813 25.1954,50.6836 h -36.3282 q -6.1523,-38.52539 -44.6777,-38.52539 -24.9023,0 -37.9395,18.01757 -12.8906,17.8711 -13.33,52.58789 v 16.40625 q 0,34.57032 14.5019,53.75977 14.6485,19.04297 40.5762,19.04297 28.418,0 40.4297,-12.89063 V 612.8418 h -43.9453 v -28.125 h 80.8593 z"
       id="path2845" />
    <path
       d="m 1896.8474,611.96289 h -41.3086 v 82.17773 h -37.0605 V 480.85937 h 75 q 36.914,0 56.9824,16.55274 20.0684,16.55273 20.0684,47.90039 0,21.38672 -10.4004,35.88867 -10.2539,14.35547 -28.711,22.11914 l 47.9004,88.91602 v 1.90429 h -39.6973 z m -41.3086,-29.73633 h 38.086 q 18.75,0 29.2968,-9.375 10.5469,-9.52148 10.5469,-25.92773 0,-17.13867 -9.8144,-26.51367 -9.668,-9.375 -29.004,-9.66797 h -39.1113 z"
       id="path2847" />
    <path
       d="m 2186.1931,593.06641 q 0,31.34765 -10.8398,55.07812 -10.8399,23.58399 -31.0547,36.32813 -20.0684,12.59765 -46.2891,12.59765 -25.9277,0 -46.289,-12.59765 -20.2149,-12.74414 -31.3477,-36.18164 -10.9863,-23.4375 -11.1328,-54.05274 v -12.01172 q 0,-31.20117 10.9863,-55.07812 11.1328,-23.87696 31.2012,-36.47461 20.2148,-12.74414 46.2891,-12.74414 26.0742,0 46.1425,12.59765 20.2149,12.45118 31.2012,36.03516 10.9863,23.4375 11.1328,54.63867 z m -37.0605,-11.13282 q 0,-35.44922 -13.4766,-54.3457 -13.3301,-18.89648 -37.9394,-18.89648 -24.0235,0 -37.6465,18.89648 -13.4766,18.75 -13.7696,53.17383 v 12.30469 q 0,35.15625 13.6231,54.3457 13.7695,19.18945 38.0859,19.18945 24.6094,0 37.793,-18.75 13.3301,-18.75 13.3301,-54.78515 z"
       id="path2849" />
    <path
       d="m 2389.406,480.85937 v 142.5293 q 0,33.98438 -21.8262,53.90625 -21.6797,19.77539 -57.8613,19.77539 -36.6211,0 -58.1543,-19.48242 -21.5332,-19.62891 -21.5332,-54.3457 V 480.85937 h 36.9141 v 142.67579 q 0,21.38671 10.8398,32.66601 10.8399,11.2793 31.9336,11.2793 42.7734,0 42.7734,-45.11719 V 480.85937 Z"
       id="path2851" />
    <path
       d="m 2608.2927,694.14062 h -37.0605 l -95.0684,-151.31835 v 151.31835 h -37.0605 V 480.85937 h 37.0605 l 95.3613,151.9043 v -151.9043 h 36.7676 z"
       id="path2853" />
    <path
       d="M 2662.3845,694.14062 V 480.85937 h 62.9883 q 28.2715,0 50.0977,12.59766 21.9726,12.59766 33.9843,35.74219 12.0118,23.14453 12.0118,53.02734 v 10.69336 q 0,30.32227 -12.1583,53.32031 -12.0117,22.99805 -34.4238,35.44922 -22.2656,12.45117 -51.123,12.45117 z m 37.0606,-183.39843 v 153.80859 h 24.1699 q 29.1504,0 44.6777,-18.16406 15.6739,-18.31055 15.9668,-52.44141 v -11.86523 q 0,-34.7168 -15.0879,-53.02735 -15.0879,-18.31054 -43.7988,-18.31054 z"
       id="path2855" />
  </g>
</svg>
